Coordinates
version=1
nRows=16
nColumns=63
inDegrees=yes

Units are S.I. units (second, meters, Newtons, ...)
If the header above contains a line with 'inDegrees', this indicates whether rotational values are in degrees (yes) or radians (no).

endheader
time	pelvis_tilt	pelvis_list	pelvis_rotation	pelvis_tx	pelvis_ty	pelvis_tz	hip_flexion_r	hip_adduction_r	hip_rotation_r	knee_angle_r	knee_angle_r_beta	ankle_angle_r	subtalar_angle_r	mtp_angle_r	hip_flexion_l	hip_adduction_l	hip_rotation_l	knee_angle_l	knee_angle_l_beta	ankle_angle_l	subtalar_angle_l	mtp_angle_l	L5_S1_Flex_Ext	L5_S1_Lat_Bending	L5_S1_axial_rotation	L4_L5_Flex_Ext	L4_L5_Lat_Bending	L4_L5_axial_rotation	L3_L4_Flex_Ext	L3_L4_Lat_Bending	L3_L4_axial_rotation	L2_L3_Flex_Ext	L2_L3_Lat_Bending	L2_L3_axial_rotation	L1_L2_Flex_Ext	L1_L2_Lat_Bending	L1_L2_axial_rotation	L1_T12_Flex_Ext	L1_T12_Lat_Bending	L1_T12_axial_rotation	Abs_r3	Abs_r2	Abs_r1	Abs_t1	Abs_t2	neck_flexion	neck_bending	neck_rotation	arm_flex_r	arm_add_r	arm_rot_r	elbow_flex_r	pro_sup_r	wrist_flex_r	wrist_dev_r	arm_flex_l	arm_add_l	arm_rot_l	elbow_flex_l	pro_sup_l	wrist_flex_l	wrist_dev_l
1.389831	-0.487933	-6.456270	103.809715	0.259148	0.727805	0.871524	5.005400	-0.663381	-7.217325	16.274849	0.284050	24.628671	-5.828467	0.000000	3.912711	-1.065568	-7.551788	10.067223	0.175706	28.033802	16.445489	0.000000	0.091679	0.094833	-1.001927	0.170256	0.126127	-1.064547	0.150619	0.230576	-1.064547	0.104780	0.230576	-0.876686	0.085133	0.193383	-0.814066	0.052385	0.146896	-0.751445	0.654851	1.072766	-5.572417	0.000000	0.000000	22.753474	1.393947	10.812394	17.352540	-4.609755	74.921115	37.369639	87.603732	4.315986	-2.734952	16.950895	-9.738857	74.007553	48.077841	25.445872	-14.747428	1.680510
1.406780	-0.518363	-6.406432	103.923602	0.259183	0.727938	0.871434	4.997808	-0.660927	-7.108765	16.370768	0.285724	24.737277	-6.043506	0.000000	3.866880	-1.054032	-7.560641	9.991515	0.174385	28.060104	16.560476	0.000000	0.088509	0.088974	-0.996275	0.164370	0.118335	-1.058542	0.145412	0.216331	-1.058542	0.101157	0.216331	-0.871741	0.082190	0.181435	-0.809473	0.050574	0.137820	-0.747206	0.632212	1.006488	-5.540983	0.000000	0.000000	22.625125	1.359390	10.642666	17.566601	-4.562195	75.606066	37.190020	87.587542	3.977055	-3.212414	17.088541	-9.695198	74.230106	47.978827	26.179307	-15.124453	2.173530
1.423729	-0.550155	-6.350810	104.021360	0.259221	0.728071	0.871342	4.972700	-0.658701	-6.994812	16.459778	0.287277	24.802659	-6.276790	0.000000	3.808082	-1.042806	-7.563408	9.913190	0.173018	28.072429	16.672231	0.000000	0.085440	0.082977	-0.986532	0.158670	0.110360	-1.048191	0.140369	0.201751	-1.048191	0.097649	0.201751	-0.863216	0.079339	0.169207	-0.801557	0.048820	0.128532	-0.739899	0.610287	0.938656	-5.486797	0.000000	0.000000	22.470594	1.335903	10.472398	17.760177	-4.529129	76.223575	37.027165	87.563587	3.609898	-3.701660	17.242389	-9.641339	74.585333	47.889234	26.547638	-15.571378	2.460131
1.440678	-0.584011	-6.288009	104.112850	0.259235	0.728204	0.871274	4.935072	-0.657253	-6.866102	16.549073	0.288836	24.819190	-6.560961	0.000000	3.734095	-1.028084	-7.535294	9.831268	0.171588	28.066931	16.763494	0.000000	0.080586	0.076809	-0.975753	0.149656	0.102156	-1.036738	0.132394	0.186754	-1.036738	0.092102	0.186754	-0.853784	0.074832	0.156629	-0.792800	0.046047	0.118978	-0.731815	0.575617	0.868882	-5.426848	0.000000	0.000000	22.334259	1.291164	10.251143	17.933956	-4.515320	76.758927	36.898653	87.495969	3.208419	-4.140493	17.416037	-9.587422	75.018447	47.808484	26.782426	-16.017237	2.662601
1.457627	-0.606943	-6.243789	104.154017	0.259289	0.728291	0.871191	4.915467	-0.639412	-6.645807	16.629577	0.290241	24.778773	-6.928959	0.000000	3.676304	-1.020192	-7.500664	9.769822	0.170516	28.068108	16.798280	0.000000	0.078740	0.071940	-0.962348	0.146227	0.095680	-1.022495	0.129361	0.174914	-1.022495	0.089992	0.174914	-0.842055	0.073118	0.146699	-0.781908	0.044992	0.111434	-0.721761	0.562429	0.813795	-5.352292	0.000000	0.000000	22.188005	1.271977	10.087839	18.044371	-4.508591	77.077037	36.800198	87.483346	2.878026	-4.517361	17.536319	-9.533942	75.340345	47.751392	26.917293	-16.466109	2.885673
1.474576	-0.618730	-6.211302	104.200672	0.259291	0.728337	0.871145	4.899840	-0.619849	-6.456257	16.695353	0.291389	24.708930	-7.279459	0.000000	3.633926	-1.016363	-7.415018	9.728164	0.169788	28.067860	16.800088	0.000000	0.076929	0.069144	-0.960548	0.142865	0.091961	-1.020582	0.126387	0.168116	-1.020582	0.087923	0.168116	-0.840479	0.071437	0.140997	-0.780445	0.043957	0.107103	-0.720411	0.549498	0.782165	-5.342278	0.000000	0.000000	22.087333	1.245939	9.968974	18.129710	-4.515942	77.295075	36.761795	87.399047	2.522479	-4.760025	17.645122	-9.504805	75.692580	47.741501	26.576056	-16.981315	2.875853
1.491525	-0.624486	-6.201061	104.203547	0.259317	0.728315	0.871113	4.909811	-0.595652	-6.206159	16.762133	0.292554	24.600115	-7.679149	0.000000	3.610475	-1.011668	-7.325859	9.706141	0.169404	28.080750	16.760602	0.000000	0.076103	0.067804	-0.960903	0.141331	0.090180	-1.020959	0.125030	0.164859	-1.020959	0.086978	0.164859	-0.840790	0.070669	0.138267	-0.780733	0.043485	0.105029	-0.720677	0.543597	0.767016	-5.344252	0.000000	0.000000	22.028995	1.220978	9.907186	18.160462	-4.530918	77.291298	36.774382	87.309926	2.292606	-4.863134	17.688949	-9.490083	75.786133	47.768048	26.602083	-17.397631	3.113469
1.508475	-0.627227	-6.213007	104.175488	0.259362	0.728220	0.871109	4.942802	-0.575489	-5.951814	16.831168	0.293759	24.470645	-8.074492	0.000000	3.611286	-1.002685	-7.224831	9.710699	0.169484	28.109758	16.673007	0.000000	0.075964	0.067116	-0.963762	0.141072	0.089265	-1.023997	0.124801	0.163187	-1.023997	0.086819	0.163187	-0.843292	0.070540	0.136864	-0.783056	0.043406	0.103963	-0.722821	0.542601	0.759233	-5.360154	0.000000	0.000000	22.024405	1.164902	9.840130	18.151270	-4.550913	77.124103	36.826609	87.213512	2.151699	-4.882140	17.693671	-9.497711	75.679444	47.843218	26.845796	-17.700606	3.593922
1.525424	-0.626713	-6.245259	104.116247	0.259434	0.728057	0.871135	4.996612	-0.554967	-5.681109	16.900705	0.294973	24.314683	-8.491593	0.000000	3.638826	-0.994413	-7.158490	9.748751	0.170148	28.165317	16.593534	0.000000	0.076365	0.066772	-0.964131	0.141817	0.088806	-1.024389	0.125459	0.162348	-1.024389	0.087277	0.162348	-0.843614	0.070912	0.136160	-0.783356	0.043635	0.103429	-0.723098	0.545465	0.755333	-5.362205	0.000000	0.000000	22.061551	1.063052	9.711027	18.099864	-4.583968	76.792281	36.926242	87.106799	2.120788	-4.796634	17.669420	-9.515633	75.372522	47.942128	27.585428	-17.814367	4.357844
1.542373	-0.618680	-6.287320	104.027260	0.259533	0.727841	0.871193	5.060771	-0.534748	-5.446153	16.968429	0.296155	24.160781	-8.842640	0.000000	3.686257	-0.992148	-7.110918	9.821689	0.171421	28.248045	16.491001	0.000000	0.076444	0.067318	-0.957024	0.141964	0.089533	-1.016837	0.125589	0.163678	-1.016837	0.087367	0.163678	-0.837396	0.070986	0.137276	-0.777582	0.043680	0.104276	-0.717768	0.546030	0.761519	-5.322678	0.000000	0.000000	22.121790	0.920486	9.513846	18.007990	-4.633636	76.305556	37.065923	87.025008	2.214003	-4.609036	17.631101	-9.530964	74.909288	48.047707	28.795112	-17.703855	5.356186
1.559322	-0.617486	-6.329465	103.898662	0.259689	0.727604	0.871295	5.131628	-0.520742	-5.202721	17.042473	0.297447	24.009764	-9.177710	0.000000	3.738051	-0.983589	-7.090814	9.919631	0.173130	28.347028	16.359004	0.000000	0.074903	0.066392	-0.933152	0.139103	0.088302	-0.991474	0.123059	0.161426	-0.991474	0.085607	0.161426	-0.816508	0.069555	0.135387	-0.758186	0.042800	0.102842	-0.699864	0.535028	0.751042	-5.189911	0.000000	0.000000	22.200220	0.714733	9.156589	17.900950	-4.690617	75.770764	37.197050	86.957986	2.371635	-4.437520	17.653720	-9.541073	74.532835	48.161156	29.979933	-17.438003	6.410365
1.576271	-0.608301	-6.365565	103.773044	0.259841	0.727362	0.871440	5.199477	-0.508190	-5.047312	17.113459	0.298686	23.896874	-9.386455	0.000000	3.804167	-0.983600	-7.074232	10.056938	0.175527	28.468409	16.209620	0.000000	0.072451	0.065700	-0.899471	0.134549	0.087381	-0.955688	0.119030	0.159743	-0.955688	0.082805	0.159743	-0.787037	0.067278	0.133975	-0.730820	0.041399	0.101769	-0.674603	0.517512	0.743211	-5.002586	0.000000	0.000000	22.275113	0.474840	8.671696	17.790990	-4.755005	75.235042	37.315806	86.929726	2.600523	-4.253315	17.690830	-9.523294	74.078910	48.216933	31.809877	-16.876665	7.662736
1.593220	-0.596170	-6.385199	103.636288	0.260027	0.727140	0.871621	5.259457	-0.485102	-4.881775	17.182204	0.299886	23.803123	-9.584829	0.000000	3.869011	-0.992895	-7.089147	10.225501	0.178469	28.610020	16.061640	0.000000	0.068028	0.064423	-0.850718	0.126336	0.085682	-0.903888	0.111764	0.156637	-0.903888	0.077750	0.156637	-0.744378	0.063171	0.131370	-0.691208	0.038871	0.099790	-0.638038	0.485920	0.728760	-4.731438	0.000000	0.000000	22.336378	0.195847	8.032420	17.706176	-4.823936	74.804719	37.416504	86.912942	2.829903	-4.071034	17.810211	-9.487765	73.796323	48.260628	33.413162	-16.267883	8.920804
1.610169	-0.571708	-6.390004	103.514800	0.260186	0.726948	0.871830	5.311960	-0.454044	-4.781541	17.246609	0.301010	23.756846	-9.678008	0.000000	3.939628	-1.016984	-7.101571	10.424065	0.181934	28.767981	15.902301	0.000000	0.062787	0.063846	-0.791292	0.116602	0.084915	-0.840748	0.103153	0.155235	-0.840748	0.071759	0.155235	-0.692381	0.058304	0.130195	-0.642925	0.035877	0.098898	-0.593469	0.448482	0.722240	-4.400930	0.000000	0.000000	22.377966	-0.104275	7.265295	17.614356	-4.906790	74.382661	37.506488	86.929481	3.100141	-3.901687	17.989686	-9.417883	73.632672	48.264843	34.874788	-15.600993	10.200075
1.627119	-0.534736	-6.378331	103.423955	0.260314	0.726797	0.872066	5.352248	-0.408123	-4.722236	17.301912	0.301975	23.739935	-9.735121	0.000000	4.019810	-1.061553	-7.140281	10.659118	0.186037	28.943095	15.788099	0.000000	0.057019	0.064119	-0.730725	0.105890	0.085278	-0.776395	0.093676	0.155898	-0.776395	0.065167	0.155898	-0.639384	0.052948	0.130751	-0.593714	0.032581	0.099320	-0.548044	0.407279	0.725322	-4.064073	0.000000	0.000000	22.382563	-0.405044	6.429574	17.576286	-4.994368	74.164966	37.587278	86.938416	3.316394	-3.722271	18.206536	-9.332816	73.513378	48.237379	36.397691	-14.872881	11.582188
1.644068	-0.496164	-6.352705	103.336001	0.260444	0.726683	0.872303	5.381190	-0.358219	-4.679610	17.352850	0.302864	23.748731	-9.753569	0.000000	4.104138	-1.113906	-7.207677	10.925493	0.190686	29.125193	15.683739	0.000000	0.050569	0.064013	-0.664670	0.093913	0.085137	-0.706212	0.083081	0.155640	-0.706212	0.057796	0.155640	-0.581587	0.046959	0.130535	-0.540045	0.028895	0.099156	-0.498503	0.361213	0.724124	-3.696697	0.000000	0.000000	22.358872	-0.716488	5.518782	17.531068	-5.083038	73.939865	37.662221	86.958552	3.560999	-3.546540	18.437214	-9.240679	73.417643	48.187099	37.839666	-14.135933	12.962622
